<svg width="12" height="12" viewBox="0 0 12 12" fill="none" xmlns="http://www.w3.org/2000/svg">
<path d="M1.04836 0.691999C0.899458 0.543097 0.65804 0.543097 0.509138 0.691999C0.360235 0.840901 0.360235 1.08232 0.509138 1.23122L5.0558 5.77788L0.509138 10.3245C0.360235 10.4734 0.360235 10.7149 0.509138 10.8638C0.65804 11.0127 0.899458 11.0127 1.04836 10.8638L5.59502 6.31711L10.1417 10.8638C10.2906 11.0127 10.532 11.0127 10.6809 10.8638C10.8298 10.7149 10.8298 10.4734 10.6809 10.3245L6.13425 5.77788L10.6809 1.23122C10.8298 1.08232 10.8298 0.840901 10.6809 0.691999C10.532 0.543097 10.2906 0.543097 10.1417 0.691999L5.59502 5.23866L1.04836 0.691999Z" fill="#414141" stroke="#414141" stroke-width="0.649695" stroke-linecap="round"/>
</svg>
