<svg width="21" height="23" viewBox="0 0 21 23" fill="none" xmlns="http://www.w3.org/2000/svg">
<path fill-rule="evenodd" clip-rule="evenodd" d="M10.3472 0.733154C6.73185 0.733154 3.80103 3.66397 3.80103 7.27932V12.4227C3.80103 16.0381 6.73185 18.9689 10.3472 18.9689C13.9626 18.9689 16.8934 16.0381 16.8934 12.4227V7.27932C16.8934 3.66397 13.9626 0.733154 10.3472 0.733154ZM7.71848 6.99319C8.84206 6.53431 9.63901 6.33828 10.3958 6.3443C11.1532 6.35029 11.9164 6.55891 12.9754 6.99296C13.2143 7.09091 13.4874 6.97661 13.5853 6.73765C13.6833 6.49872 13.569 6.22561 13.33 6.12766C12.2309 5.67711 11.3374 5.41658 10.4032 5.40916C9.46839 5.40174 8.53888 5.648 7.36491 6.12743C7.12584 6.22509 7.01119 6.49804 7.10882 6.73711C7.20646 6.97618 7.47941 7.09082 7.71848 6.99319ZM8.65754 8.64574C9.398 8.33555 9.90571 8.21072 10.3783 8.21458C10.8515 8.21843 11.3371 8.35154 12.0363 8.64552C12.2743 8.7456 12.5485 8.63379 12.6486 8.39571C12.7487 8.15767 12.6368 7.88355 12.3988 7.78347C11.6592 7.47248 11.0403 7.28478 10.3859 7.27944C9.73069 7.2741 9.08743 7.45176 8.29619 7.78321C8.05801 7.88301 7.94582 8.15699 8.0456 8.39517C8.14538 8.63333 8.41935 8.74555 8.65754 8.64574Z" fill="white"/>
<path d="M20.1647 9.09969C20.1371 8.71333 19.8015 8.42246 19.4151 8.45005C19.0287 8.47765 18.7379 8.81327 18.7655 9.19963C19.0471 13.1422 18.0167 16.0188 16.411 17.8999C14.8024 19.7844 12.5742 20.7224 10.3472 20.7224C8.12022 20.7224 5.89198 19.7844 4.28335 17.8999C2.67775 16.0188 1.6473 13.1422 1.92891 9.19963C1.95651 8.81327 1.66566 8.47765 1.27929 8.45005C0.892917 8.42246 0.557326 8.71333 0.529726 9.09969C0.226859 13.3398 1.32976 16.6003 3.21642 18.8106C5.10006 21.0173 7.723 22.1251 10.3472 22.1251C12.9714 22.1251 15.5943 21.0173 17.478 18.8106C19.3646 16.6003 20.4675 13.3398 20.1647 9.09969Z" fill="white"/>
</svg>
