<svg width="90" height="91" viewBox="0 0 90 91" fill="none" xmlns="http://www.w3.org/2000/svg">
<path fill-rule="evenodd" clip-rule="evenodd" d="M45 90.8782C56.9347 90.8782 68.3807 86.1371 76.8198 77.698C85.2589 69.2588 90 57.8129 90 45.8782C90 33.9434 85.2589 22.4975 76.8198 14.0584C68.3807 5.61923 56.9347 0.878174 45 0.878174C33.0653 0.878174 21.6193 5.61923 13.1802 14.0584C4.74106 22.4975 0 33.9434 0 45.8782C0 57.8129 4.74106 69.2588 13.1802 77.698C21.6193 86.1371 33.0653 90.8782 45 90.8782ZM42.4969 29.9482C41.6497 29.383 40.6651 29.0584 39.6479 29.009C38.6307 28.9596 37.6192 29.1872 36.7213 29.6676C35.8234 30.1481 35.0728 30.8632 34.5495 31.7369C34.0262 32.6105 33.7498 33.6098 33.75 34.6282V57.1282C33.7498 58.1465 34.0262 59.1458 34.5495 60.0195C35.0728 60.8931 35.8234 61.6083 36.7213 62.0887C37.6192 62.5691 38.6307 62.7968 39.6479 62.7474C40.6651 62.698 41.6497 62.3734 42.4969 61.8082L59.3719 50.5582C60.1423 50.0445 60.7739 49.3486 61.2108 48.5322C61.6477 47.7157 61.8763 46.8041 61.8763 45.8782C61.8763 44.9522 61.6477 44.0406 61.2108 43.2242C60.7739 42.4078 60.1423 41.7119 59.3719 41.1982L42.4969 29.9482Z" fill="#373737"/>
</svg>
